<svg width="50" height="33" viewBox="0 0 50 33" fill="none" xmlns="http://www.w3.org/2000/svg">
<g clip-path="url(#clip0_0_81)">
<path fill-rule="evenodd" clip-rule="evenodd" d="M28.9772 15.7924C28.9772 23.4088 22.7134 29.5831 14.9866 29.5831C7.25988 29.5831 0.996094 23.4088 0.996094 15.7924C0.996094 8.17601 7.25988 2.00171 14.9866 2.00171C22.7134 2.00171 28.9772 8.17601 28.9772 15.7924ZM27.858 15.7924C27.858 22.7995 22.0953 28.4798 14.9866 28.4798C7.87802 28.4798 2.11534 22.7995 2.11534 15.7924C2.11534 8.78532 7.87802 3.10496 14.9866 3.10496C22.0953 3.10496 27.858 8.78532 27.858 15.7924ZM12.7482 13.0343V13.5859H13.8674V22.4119H12.7482V22.9636H13.8674H16.1059H17.2251V22.4119H16.1059V13.0343H13.8674H12.7482ZM16.6655 10.2761C16.6655 11.1901 15.9139 11.931 14.9866 11.931C14.0594 11.931 13.3078 11.1901 13.3078 10.2761C13.3078 9.36216 14.0594 8.62124 14.9866 8.62124C15.9139 8.62124 16.6655 9.36216 16.6655 10.2761Z" fill="white"/>
</g>
<defs>
<clipPath id="clip0_0_81">
<rect width="49" height="32" fill="white" transform="translate(0.996094 0.00170898)"/>
</clipPath>
</defs>
</svg>
